<?xml version="1.0" encoding="UTF-8" standalone="no"?>
<svg width="110px" height="110px" viewBox="0 0 110 110" version="1.1" xmlns="http://www.w3.org/2000/svg" xmlns:xlink="http://www.w3.org/1999/xlink" xmlns:sketch="http://www.bohemiancoding.com/sketch/ns">
    <!-- Generator: Sketch 3.2.1 (9977) - http://www.bohemiancoding.com/sketch -->
    <title>Rectangle 20</title>
    <desc>Created with Sketch.</desc>
    <defs></defs>
    <g id="Page-1" stroke="none" stroke-width="1" fill="none" fill-rule="evenodd" sketch:type="MSPage">
        <g id="Mark" sketch:type="MSArtboardGroup" fill="#000000">
            <path d="M25,60 L20,60 L20,90 L30,90 L30,70 L50,70 L50,60 L25,60 Z M65,50 L60,50 L60,20 L65,20 L90,20 L90,30 L70,30 L70,40 L90,40 L90,50 L65,50 L65,50 Z M65,60 L60,60 L60,90 L70,90 L70,70 L90,70 L90,60 L65,60 L65,60 Z M45,50 L50,50 L50,20 L40,20 L40,40 L20,40 L20,50 L45,50 L45,50 Z M0,0 L110,0 L110,110 L0,110 L0,0 Z" id="Rectangle-20" sketch:type="MSShapeGroup"></path>
        </g>
    </g>
</svg>